<?xml version="1.0" encoding="utf-8"?>
<!-- Generator: Adobe Illustrator 22.1.0, SVG Export Plug-In . SVG Version: 6.00 Build 0)  -->
<svg version="1.1" id="Layer_1" xmlns="http://www.w3.org/2000/svg" xmlns:xlink="http://www.w3.org/1999/xlink" x="0px" y="0px"
	 viewBox="0 0 60 60" enable-background="new 0 0 60 60" xml:space="preserve">
<rect fill="#FFFFFF" width="60" height="60"/>
<g>
	<g>
		<g>
			<g>
				<g>
					<path d="M44.5171623,34.4614563l-1.7338295,3.1415138l-1.6754494-3.1415138h-1.5703278
						c0.2914085,0.5315437,2.3473892,4.3976517,2.3473892,4.3976517s0.0001984,2.2004242,0.0001984,2.548542h1.6857452
						c0.0009308-0.3467903,0.0004654-2.5382462,0.0004654-2.5382462s2.135006-3.8726196,2.4373016-4.4079475H44.5171623z"/>
					<path d="M25.6633625,38.9766541c0,1.2322998-0.4302692,1.5134125-1.6385288,1.5134125
						c-1.2091236,0-1.6386604-0.2811127-1.6386604-1.5134125V36.895504c0-1.201683,0.4295368-1.4613457,1.6386604-1.4613457
						c1.2082596,0,1.6385288,0.2596626,1.6385288,1.4613457V38.9766541z M26.3565464,34.8488884
						c-0.4777508-0.3334427-1.2844982-0.5086975-2.3317127-0.5086975c-1.0235748,0-1.7666988,0.1426468-2.3368263,0.5112228
						c-0.594965,0.3847122-0.875946,1.0281563-0.875946,2.0346603v2.1876717c0,1.0094299,0.2921371,1.691391,0.8694363,2.0303459
						c0.4681225,0.326004,1.2305737,0.4805412,2.3433361,0.4805412c1.0968227,0,1.881258-0.1587868,2.3289242-0.4717751
						c0.5806198-0.360405,0.8829174-1.0626221,0.8829174-2.0391121v-2.1876717
						C27.2366753,35.9273834,26.9404221,35.2421684,26.3565464,34.8488884"/>
					<path d="M18.2560825,38.8125572c0,1.2164268-0.6490231,1.5229759-1.1933174,1.5229759h-1.9232912v-4.8537598h1.9232912
						c0.5442944,0,1.1933174,0.3069458,1.1933174,1.4381714V38.8125572z M17.0504131,34.4616547h-3.4791393v6.9461288h3.7224655
						c1.8354988,0,2.5176601-0.747509,2.5176601-2.762249V37.119175
						C19.8113995,35.2068367,19.0377922,34.4616547,17.0504131,34.4616547"/>
					<polygon points="29.9549599,34.4616547 28.3873577,34.4616547 28.3873577,41.4077835 32.8494949,41.4077835 
						32.8494949,40.2524529 29.9549599,40.2524529 					"/>
					<path d="M37.5254745,37.7327347c1.2326317-0.1130981,1.4999313-0.7157669,1.4999313-1.5850029
						c0-0.7647743-0.3244133-1.1541367-0.679039-1.3730888c-0.2976494-0.1868782-0.6495552-0.3129883-1.3875008-0.3129883
						h-3.2488327v6.9461288h3.2914658c1.011158,0,1.4323273-0.198101,1.627903-0.3323822
						c0.334507-0.223999,0.7687607-0.7203445,0.7687607-1.5098915
						C39.3981628,38.6317902,39.0740814,37.6968727,37.5254745,37.7327347z M36.6936264,40.3982239h-1.416523v-0.0061111v-4.9300613
						v-0.0046501h1.5432968c0.5222473,0,0.8477211,0.4149971,0.8477211,0.9818039
						c0,0.8715591-0.4212341,0.8934097-1.6232529,0.9366417c0,0.1291008,0,0.6109047,0,0.8046875
						c1.073513-0.0038528,1.9345169-0.0681343,1.9345169,1.0440941
						C37.9793854,39.7827377,37.6224327,40.3982239,36.6936264,40.3982239"/>
				</g>
			</g>
		</g>
	</g>
	<path d="M13.5712738,8.9564514v22.5183563h32.4513283V8.9564514H13.5712738z M21.0968933,28.5577602h-3.6953716V11.8709774
		h3.6953716c3.8418713,0,7.04953,3.8133812,7.04953,8.310318C28.1464233,24.814373,24.9387646,28.5577602,21.0968933,28.5577602z
		 M42.2040405,28.5577602h-3.7109108c-3.8431969,0-7.0508575-3.7433872-7.0508575-8.3764648
		c0-4.4969368,3.2076607-8.310318,7.0508575-8.310318h3.7109108V28.5577602z"/>
	<g>
		<g>
			<path d="M18.001667,49.6917381h-2.9284697l-0.5678034,1.6634979h-0.9361124l2.4005117-6.7538071h1.1356068l2.4105415,6.7538071
				h-0.9364433L18.001667,49.6917381z M15.3222342,48.9842072h2.4307299l-0.8567543-2.5098228
				c-0.1595154-0.4780159-0.239275-0.7471085-0.3485832-1.0960274h-0.0201244
				c-0.1095753,0.3489189-0.189333,0.6180115-0.3485832,1.0960274L15.3222342,48.9842072z"/>
			<path d="M22.4317951,51.3552361h-0.9066925V45.30896h-2.0019875v-0.707531h4.9106712v0.707531h-2.0019913V51.3552361z"/>
			<path d="M31.1973534,44.601429h1.1654243v6.7538071h-0.896265V49.462822c0-1.1855469,0.0496082-2.5798836,0.0596352-3.7653656
				h-0.0298176c-0.2490368,0.5674057-0.4283428,1.0058441-0.6971684,1.5337334l-1.3748817,2.7095833h-0.6871414
				l-1.3745499-2.7095833c-0.2691593-0.5278893-0.4484653-0.9663277-0.6975021-1.5337334h-0.0298157
				c0.010025,1.185482,0.0596333,2.5798187,0.0596333,3.7653656v1.8924141h-0.8962669V44.601429h1.1654263l2.1015358,4.1239815
				h0.0301533L31.1973534,44.601429z"/>
			<path d="M36.9423981,51.474575c-2.2510948,0-2.8788643-1.3145828-2.8788643-3.4962769
				c0-2.1816254,0.6277695-3.4962082,2.8788643-3.4962082c2.2510223,0,2.8784637,1.3145828,2.8784637,3.4962082
				C39.8208618,50.1599922,39.1934204,51.474575,36.9423981,51.474575z M36.9423981,50.7274666
				c1.5140076,0,1.9322548-0.8865738,1.9322548-2.7491684s-0.4182472-2.7490959-1.9322548-2.7490959
				c-1.5140114,0-1.9323273,0.8865013-1.9323273,2.7490959S35.4283867,50.7274666,36.9423981,50.7274666z"/>
			<path d="M45.0305748,49.4822807c0-1.0753059-0.7270546-1.1550636-1.6933174-1.1848831
				c-1.1757851-0.0402412-2.1220551-0.4286728-2.1220551-1.893074c0-1.5136795,1.2556076-1.9222336,2.5701904-1.9222336
				c0.3287926,0,1.1258469,0.0298195,1.6835518,0.2289162v0.7471085c-0.6374664-0.2088585-1.2750015-0.2289124-1.7036743-0.2289124
				c-1.0156059,0-1.5934334,0.3884277-1.5934334,1.1057205c0,1.0259666,0.7269859,1.005909,1.6433716,1.0655441
				c1.0960312,0.0700645,2.1712685,0.3489189,2.1712685,1.9825974c0,1.6336136-1.3845787,2.0915108-2.7490997,2.0915108
				c-0.3287926,0-1.3846436-0.0395813-1.9624748-0.2788544v-0.7866898c0.6478958,0.2386742,1.5545197,0.2788544,1.9825325,0.2788544
				C44.5325012,50.6878853,45.0305748,50.1995735,45.0305748,49.4822807z"/>
		</g>
	</g>
</g>
</svg>
