<?xml version="1.0" encoding="utf-8"?>
<!-- Generator: Adobe Illustrator 22.1.0, SVG Export Plug-In . SVG Version: 6.00 Build 0)  -->
<svg version="1.1" id="Layer_1" xmlns="http://www.w3.org/2000/svg" xmlns:xlink="http://www.w3.org/1999/xlink" x="0px" y="0px"
	 viewBox="0 0 60 60" enable-background="new 0 0 60 60" xml:space="preserve">
<rect fill="#FFFFFF" width="60" height="60"/>
<path d="M50.2060547,13.2089844c-1.4951172-1.4941406-3.9257812-1.4912109-5.4189453,0L19.5556641,38.4404297
	c-0.1025391,0.1025391-0.1738281,0.2324219-0.203125,0.375l-1.1708984,5.5292969
	c-0.0527344,0.2480469,0.0234375,0.5058594,0.203125,0.6855469C18.5273438,45.1728516,18.7177734,45.25,18.9150391,45.25
	c0.0517578,0,0.1035156-0.0048828,0.1552734-0.0166016l5.5283203-1.171875c0.1425781-0.0302734,0.2724609-0.1005859,0.375-0.203125
	l19.6790161-19.6782837c0.0001831-0.0001831,0.0004883-0.0002441,0.0006714-0.0004272s0.0002441-0.0004272,0.0004272-0.0006104
	l5.5523071-5.552124C51.7001953,17.1328125,51.7001953,14.703125,50.2060547,13.2089844z M24.0703125,42.640625
	l-4.1826172,0.8867188l0.8857422-4.1835938l18.9916992-18.9916992l3.2972412,3.2972412L24.0703125,42.640625z
	 M49.1455078,17.5664062l-5.022583,5.0223389l-3.2972412-3.2972412l5.0219727-5.0219727
	c0.9082031-0.9082031,2.3896484-0.9082031,3.2978516,0C50.0546875,15.1787109,50.0546875,16.6572266,49.1455078,17.5664062z"/>
<path d="M15.7822266,45.25H8.2275391c-0.4140625,0-0.75-0.3359375-0.75-0.75s0.3359375-0.75,0.75-0.75h7.5546875
	c0.4140625,0,0.75,0.3359375,0.75,0.75S16.1962891,45.25,15.7822266,45.25z"/>
</svg>
