<?xml version="1.0" encoding="utf-8"?>
<!-- Generator: Adobe Illustrator 22.1.0, SVG Export Plug-In . SVG Version: 6.00 Build 0)  -->
<svg version="1.1" id="Layer_1" xmlns="http://www.w3.org/2000/svg" xmlns:xlink="http://www.w3.org/1999/xlink" x="0px" y="0px"
	 viewBox="0 0 60 60" enable-background="new 0 0 60 60" xml:space="preserve">
<path d="M51.2373047,14.6035156H8.7397461c-0.9331055,0-1.6918945,0.7587891-1.6918945,1.6923828v27.2617188
	c0,0.9335938,0.7587891,1.6923828,1.6918945,1.6923828H16.46875v1.7919922c0,0.4140625,0.3359375,0.75,0.75,0.75h25.5683594
	c0.4140625,0,0.75-0.3359375,0.75-0.75V45.25h7.7001953c0.9326172,0,1.6914062-0.7587891,1.6914062-1.6923828V16.2958984
	C52.9287109,15.3623047,52.1699219,14.6035156,51.2373047,14.6035156z M42.1767578,41.6464844
	c-0.0172119,0-0.0317383,0.0080566-0.0484619,0.0097656H17.9542236c-0.0167236-0.001709-0.03125-0.0097656-0.0484619-0.0097656
	h-6.5371094c-0.2255859,0-0.4091797-0.1835938-0.4091797-0.4101562V18.6171875c0-0.2255859,0.1835938-0.4091797,0.4091797-0.4091797
	h37.2397461c0.2255859,0,0.4091797,0.1835938,0.4091797,0.4091797v22.6191406c0,0.2265625-0.1835938,0.4101562-0.4091797,0.4101562
	H42.1767578z M42.0371094,46.2919922H17.96875V43.15625h24.0683594V46.2919922z M51.4287109,43.5576172
	c0,0.1064453-0.0859375,0.1923828-0.1914062,0.1923828h-7.7001953v-1.1035156h5.0712891
	c0.7773438,0,1.4091797-0.6328125,1.4091797-1.4101562V18.6171875c0-0.7773438-0.6318359-1.4091797-1.4091797-1.4091797H11.3686523
	c-0.7768555,0-1.4091797,0.6318359-1.4091797,1.4091797v22.6191406c0,0.7773438,0.6323242,1.4101562,1.4091797,1.4101562H16.46875
	V43.75H8.7397461c-0.105957,0-0.1918945-0.0859375-0.1918945-0.1923828V16.2958984
	c0-0.1064453,0.0859375-0.1923828,0.1918945-0.1923828h42.4975586c0.1054688,0,0.1914062,0.0859375,0.1914062,0.1923828V43.5576172z
	"/>
</svg>
