<?xml version="1.0" encoding="utf-8"?>
<!-- Generator: Adobe Illustrator 22.1.0, SVG Export Plug-In . SVG Version: 6.00 Build 0)  -->
<svg version="1.1" id="Layer_1" xmlns="http://www.w3.org/2000/svg" xmlns:xlink="http://www.w3.org/1999/xlink" x="0px" y="0px"
	 viewBox="0 0 60 60" enable-background="new 0 0 60 60" xml:space="preserve">
<rect y="0" fill="#FFFFFF" width="60" height="60"/>
<path d="M51.2558594,45.5087891H8.8115234c-0.9326172,0-1.6914062-0.7587891-1.6914062-1.6904297V16.5898438
	c0-0.9326172,0.7587891-1.6914062,1.6914062-1.6914062h42.4443359c0.9326172,0,1.6914062,0.7587891,1.6914062,1.6914062v27.2285156
	C52.9472656,44.75,52.1884766,45.5087891,51.2558594,45.5087891z M8.8115234,16.3984375
	c-0.1054688,0-0.1914062,0.0859375-0.1914062,0.1914062v27.2285156c0,0.1054688,0.0859375,0.1904297,0.1914062,0.1904297h42.4443359
	c0.1054688,0,0.1914062-0.0849609,0.1914062-0.1904297V16.5898438c0-0.1054688-0.0859375-0.1914062-0.1914062-0.1914062H8.8115234z"
	/>
<path d="M48.6308594,42.9082031H11.4375c-0.7773438,0-1.4091797-0.6318359-1.4091797-1.4091797V18.9082031
	C10.0283203,18.1318359,10.6601562,17.5,11.4375,17.5h37.1933594c0.7763672,0,1.4082031,0.6318359,1.4082031,1.4082031v22.5908203
	C50.0390625,42.2763672,49.4072266,42.9082031,48.6308594,42.9082031z M11.4375,18.5
	c-0.2255859,0-0.4091797,0.1835938-0.4091797,0.4082031v22.5908203c0,0.2255859,0.1835938,0.4091797,0.4091797,0.4091797h37.1933594
	c0.2246094,0,0.4082031-0.1835938,0.4082031-0.4091797V18.9082031c0-0.2246094-0.1835938-0.4082031-0.4082031-0.4082031H11.4375z"/>
<path d="M47.0527344,20.6210938c-0.0703125-0.1123047-0.1826172-0.1923828-0.3115234-0.2226562l-2.125-0.4941406
	c-0.2714844-0.0605469-0.5380859,0.1054688-0.6005859,0.3740234s0.1054688,0.5380859,0.3740234,0.6005859l0.9480591,0.220459
	l-6.7000122,4.1691895c-0.234375,0.1464844-0.3056641,0.4541016-0.1601562,0.6894531
	c0.0947266,0.1513672,0.2578125,0.2353516,0.4248047,0.2353516c0.0908203,0,0.1816406-0.0244141,0.2646484-0.0751953
	l6.699707-4.1690063l-0.2211914,0.9492798c-0.0625,0.2685547,0.1044922,0.5380859,0.3740234,0.6005859
	c0.0380859,0.0087891,0.0761719,0.0126953,0.1132812,0.0126953c0.2275391,0,0.4335938-0.15625,0.4873047-0.3867188
	l0.4951172-2.1259766C47.1445312,20.8701172,47.1220703,20.734375,47.0527344,20.6210938z"/>
<g>
	<path d="M13.4492188,23.125c0.0537109,0.2304688,0.2597656,0.3867188,0.4873047,0.3867188
		c0.0371094,0,0.0751953-0.0039062,0.1132812-0.0126953c0.2695312-0.0625,0.4365234-0.3320312,0.3740234-0.6005859
		l-0.2211914-0.9492798l6.699707,4.1690063c0.0830078,0.0507812,0.1738281,0.0751953,0.2646484,0.0751953
		c0.1669922,0,0.3300781-0.0839844,0.4248047-0.2353516c0.1455078-0.2353516,0.0742188-0.5429688-0.1601562-0.6894531
		l-6.6998901-4.1691284l0.9489136-0.22052c0.2685547-0.0625,0.4365234-0.3310547,0.3740234-0.6005859
		c-0.0625-0.2685547-0.3261719-0.4345703-0.6005859-0.3740234l-2.1259766,0.4941406
		c-0.1289062,0.0302734-0.2412109,0.1103516-0.3115234,0.2226562c-0.0693359,0.1132812-0.0917969,0.2490234-0.0625,0.3779297
		L13.4492188,23.125z"/>
	<path d="M20.9023438,34.3173828l-6.699585,4.1689453l0.2210693-0.9482422
		c0.0625-0.2685547-0.1044922-0.5371094-0.3740234-0.6005859c-0.2714844-0.0615234-0.5380859,0.1064453-0.6005859,0.3740234
		l-0.4951172,2.125c-0.0292969,0.1289062-0.0068359,0.2646484,0.0625,0.3769531
		c0.0703125,0.1132812,0.1826172,0.1933594,0.3115234,0.2236328l2.1259766,0.4951172
		c0.0380859,0.0087891,0.0761719,0.0126953,0.1132812,0.0126953c0.2275391,0,0.4335938-0.15625,0.4873047-0.3867188
		c0.0625-0.2685547-0.1044922-0.5380859-0.3740234-0.6005859l-0.9494019-0.2211914l6.7003784-4.1694336
		c0.234375-0.1464844,0.3056641-0.4541016,0.1601562-0.6894531C21.4453125,34.2441406,21.1376953,34.1738281,20.9023438,34.3173828z
		"/>
</g>
<path d="M47.1152344,39.4365234l-0.4951172-2.125c-0.0625-0.2685547-0.328125-0.4355469-0.6005859-0.3740234
	c-0.2695312,0.0634766-0.4365234,0.3320312-0.3740234,0.6005859l0.2209473,0.9481201l-6.6994629-4.1688232
	c-0.234375-0.1435547-0.5429688-0.0732422-0.6894531,0.1601562c-0.1455078,0.2353516-0.0742188,0.5429688,0.1601562,0.6894531
	l6.7011108,4.1698608l-0.9491577,0.2207642c-0.2695312,0.0634766-0.4365234,0.3320312-0.3740234,0.6005859
	c0.0537109,0.2304688,0.2597656,0.3867188,0.4873047,0.3867188c0.0371094,0,0.0751953-0.0039062,0.1132812-0.0126953
	l2.125-0.4951172C47.0107422,39.9736328,47.1777344,39.7050781,47.1152344,39.4365234z"/>
</svg>
